
<svg width="42" height="38" viewBox="0 0 42 38" fill="none" xmlns="http://www.w3.org/2000/svg">
<g filter="url(#filter0_dd_1_49672)">
<g clip-path="url(#clip0_1_49672)">
<path opacity="0.7" d="M21.9916 2.09943C21.1436 2.09942 20.3196 2.38079 19.6486 2.89945L5.45145 13.8747C2.44198 16.6616 4.2582 21.623 8.22397 21.9304C8.35189 21.9403 8.48206 21.9454 8.61437 21.9454C8.61432 21.9454 8.61442 21.9454 8.61437 21.9454L23.8682 21.9454L17.6166 26.7392C14.6756 28.9945 16.2704 33.6952 19.9766 33.6952C20.8351 33.6952 21.6694 33.4103 22.3486 32.8853L36.533 21.9199C38.5128 20.0866 38.4042 17.3122 36.9691 15.5408L36.9674 15.5384C36.1771 14.5643 34.9854 13.894 33.5192 13.8514C33.4698 13.85 33.42 13.8493 33.3701 13.8493L30.737 13.8493C30.737 13.8493 30.7413 13.85 30.7495 13.8514H18.0337L24.3404 8.95646C27.2234 6.71884 25.6411 2.09947 21.9916 2.09943Z" fill="#BF97FF"/>
<path d="M8.61767 21.9447C8.61763 21.9447 8.6177 21.9447 8.61767 21.9447H11.2485C11.2487 21.9447 11.2488 21.9443 11.2485 21.9443C11.2483 21.9443 11.2483 21.9439 11.2486 21.9439C11.2753 21.9444 11.3021 21.9447 11.329 21.9447L36.462 21.9447C36.489 21.9447 36.5151 21.9358 36.5365 21.9193C38.5171 20.0852 38.4075 17.3093 36.9708 15.5379C36.1805 14.5638 34.9887 13.8934 33.5224 13.8508H5.52284C5.49819 13.8508 5.47424 13.8589 5.45474 13.874C2.40935 16.6942 4.30556 21.7411 8.37022 21.9387C8.45184 21.9427 8.53433 21.9447 8.61767 21.9447Z" fill="#2F56E1"/>
<g style="mix-blend-mode:overlay">
<path d="M22.3517 32.8846C21.6725 33.4096 20.8382 33.6945 19.9797 33.6945C16.2735 33.6945 14.6787 28.9938 17.6197 26.7385L30.5088 16.8549C33.6212 14.474 30.7401 13.8486 30.7401 13.8486L33.3732 13.8486C37.6072 13.8486 39.6427 19.0425 36.5361 21.9192L22.3517 32.8846Z" fill="url(#paint0_linear_1_49672)"/>
</g>
<path d="M19.6519 2.89878C20.3229 2.38012 21.1469 2.09875 21.9949 2.09875C25.6444 2.09879 27.2267 6.71817 24.3437 8.95579L11.482 18.9384C8.61767 21.1999 11.2508 21.9447 11.2508 21.9447H8.61767C4.3837 21.9447 2.3482 16.7508 5.45474 13.874L19.6519 2.89878Z" fill="url(#paint1_linear_1_49672)"/>
</g>
</g>
<defs>
<filter id="filter0_dd_1_49672" x="0.895203" y="0.0913086" width="40.2097" height="37.8174" filterUnits="userSpaceOnUse" color-interpolation-filters="sRGB">
<feFlood flood-opacity="0" result="BackgroundImageFix"/>
<feColorMatrix in="SourceAlpha" type="matrix" values="0 0 0 0 0 0 0 0 0 0 0 0 0 0 0 0 0 0 127 0" result="hardAlpha"/>
<feOffset dy="1"/>
<feGaussianBlur stdDeviation="1"/>
<feColorMatrix type="matrix" values="0 0 0 0 0.0627451 0 0 0 0 0.0941176 0 0 0 0 0.156863 0 0 0 0.06 0"/>
<feBlend mode="normal" in2="BackgroundImageFix" result="effect1_dropShadow_1_49672"/>
<feColorMatrix in="SourceAlpha" type="matrix" values="0 0 0 0 0 0 0 0 0 0 0 0 0 0 0 0 0 0 127 0" result="hardAlpha"/>
<feOffset dy="1"/>
<feGaussianBlur stdDeviation="1.5"/>
<feColorMatrix type="matrix" values="0 0 0 0 0.0627451 0 0 0 0 0.0941176 0 0 0 0 0.156863 0 0 0 0.1 0"/>
<feBlend mode="normal" in2="effect1_dropShadow_1_49672" result="effect2_dropShadow_1_49672"/>
<feBlend mode="normal" in="SourceGraphic" in2="effect2_dropShadow_1_49672" result="shape"/>
</filter>
<linearGradient id="paint0_linear_1_49672" x1="10.2574" y1="35.9133" x2="42.8887" y2="10.781" gradientUnits="userSpaceOnUse">
<stop stop-color="#F410AC"/>
<stop offset="1" stop-color="#F410AC" stop-opacity="0"/>
</linearGradient>
<linearGradient id="paint1_linear_1_49672" x1="31.5676" y1="0.00766915" x2="-0.897912" y2="25.0123" gradientUnits="userSpaceOnUse">
<stop stop-color="#FFC238"/>
<stop offset="1" stop-color="#FFC238" stop-opacity="0"/>
</linearGradient>
<clipPath id="clip0_1_49672">
<rect width="34.2096" height="31.8174" fill="white" transform="translate(3.8952 2.09131)"/>
</clipPath>
</defs>
</svg>
